<?xml version="1.0" encoding="UTF-8" standalone="no"?>
<!-- Created with Inkscape (http://www.inkscape.org/) -->

<svg
   width="512"
   height="512"
   viewBox="0 0 512 512"
   version="1.1"
   id="svg1"
   inkscape:version="1.3.2 (091e20e, 2023-11-25, custom)"
   sodipodi:docname="福_inkscape.svg"
   inkscape:export-filename="foo_512.svg"
   inkscape:export-xdpi="96"
   inkscape:export-ydpi="96"
   xmlns:inkscape="http://www.inkscape.org/namespaces/inkscape"
   xmlns:sodipodi="http://sodipodi.sourceforge.net/DTD/sodipodi-0.dtd"
   xmlns="http://www.w3.org/2000/svg"
   xmlns:svg="http://www.w3.org/2000/svg">
  <sodipodi:namedview
     id="namedview1"
     pagecolor="#ffffff"
     bordercolor="#000000"
     borderopacity="0.25"
     inkscape:showpageshadow="2"
     inkscape:pageopacity="0.0"
     inkscape:pagecheckerboard="0"
     inkscape:deskcolor="#d1d1d1"
     inkscape:document-units="px"
     inkscape:zoom="1.0690104"
     inkscape:cx="66.416566"
     inkscape:cy="269.87577"
     inkscape:window-width="1920"
     inkscape:window-height="1017"
     inkscape:window-x="-8"
     inkscape:window-y="-8"
     inkscape:window-maximized="1"
     inkscape:current-layer="layer1" />
  <defs
     id="defs1" />
  <g
     inkscape:label="图层 1"
     inkscape:groupmode="layer"
     id="layer1">
    <rect
       style="fill:#ff0000;stroke-width:0.999997"
       id="rect1"
       width="362.03867"
       height="362.03867"
       x="-181.01935"
       y="-543.05798"
       transform="rotate(135)" />
    <path
       style="font-size:24.1779px;font-family:qiantuhouheiti;-inkscape-font-specification:qiantuhouheiti;fill:#ffcc00;stroke-width:1"
       d="m 163.11929,339.07328 c 11.19228,-4.96538 101.88934,-2.95544 110.07893,1.84276 8.66623,5.07746 16.26361,20.33586 7.26331,25.7569 -6.49824,3.91403 -110.41628,5.69337 -121.12189,-2.4211 -13.20924,-10.01213 -5.44369,-21.08669 3.77965,-25.17856 z m -11.48978,-91.04817 c -11.72323,-14.8822 -13.02737,-75.22355 3.38955,-92.15853 14.39358,-14.84782 114.12107,-18.10113 131.51366,-1.45269 20.81336,19.9229 2.76163,77.15301 14.483,73.52241 11.74396,-3.63754 3.78181,-59.09226 14.19675,-73.39148 8.18656,-11.23969 26.09437,-14.32813 34.45183,-5.32642 7.81907,8.42179 -7.71436,72.6504 1.93689,74.26227 6.01123,1.00393 3.57453,-4.04172 12.06776,-6.27697 10.90937,-2.87115 21.26256,6.83008 13.44556,23.36559 -7.0311,14.87313 -34.10866,44.61255 -29.088,51.41464 5.96609,8.08294 20.13201,1.39167 27.41203,5.81066 10.17979,6.17912 9.72212,34.71905 -1.93689,43.18884 -9.61604,6.98566 -11.78671,-6.78008 -18.36204,-2.4211 -8.29688,5.50024 4.79927,12.50486 -0.26125,24.08398 -5.42085,12.40351 -21.50893,9.69941 -31.6956,4.48303 -8.50256,-4.35401 -3.71338,-20.9549 -11.73238,-26.14591 -3.72071,-2.40855 -13.56824,3.55081 -21.04426,-1.93687 -9.16404,-6.72677 -8.84964,-18.01247 -3.20269,-30.36099 4.87722,-10.6653 18.26892,-21.71616 17.54667,-34.52068 -0.44286,-7.85227 -19.55043,-32.28313 -27.86739,-25.08829 -8.70067,7.52676 -116.21157,10.42645 -125.25318,-1.0515 z m 118.88726,25.78277 c 12.52324,6.22415 11.68155,37.59904 0,47.13602 -12.21954,9.97621 -93.97089,12.58315 -108.23497,0.48421 -14.07472,-11.93831 -7.6684,-38.56001 0.96846,-49.55712 11.08499,-14.11434 94.32468,-4.49531 107.26652,1.93689 z m -22.34669,16.42775 c -9.08475,-4.44167 -55.90281,-12.40147 -61.28744,-6.1295 -4.21622,4.91103 -3.69839,14.74018 0.12974,19.44754 5.06174,6.2243 51.75778,6.4946 59.70503,0.48422 3.02583,-2.28837 9.0345,-10.09537 1.45267,-13.80226 z m 5.92193,-57.83452 c 3.91509,-3.91511 3.91509,-12.69525 0,-16.61035 -5.71506,-5.71506 -18.5319,-5.71506 -24.24695,0 -3.91508,3.9151 -3.91508,12.69524 0,16.61035 5.71505,5.71503 18.53189,5.71503 24.24695,0 z m -73.52299,0 c 5.96087,5.96085 19.32895,5.96085 25.28983,0 3.91509,-3.91511 3.91509,-12.69525 0,-16.61035 -5.96088,-5.96086 -19.32896,-5.96086 -25.28983,0 -3.91509,3.9151 -3.91509,12.69524 0,16.61035 z m 73.52299,-48.60062 c -5.71506,-5.71506 -18.5319,-5.71506 -24.24695,0 -3.91508,3.9151 -3.91508,12.69523 0,16.61033 5.71505,5.71505 18.53189,5.71505 24.24695,0 3.91509,-3.9151 3.91509,-12.69523 0,-16.61033 z m -73.52299,16.61033 c 5.96087,5.96085 19.32895,5.96085 25.28983,0 3.91509,-3.9151 3.91509,-12.69523 0,-16.61033 -5.96088,-5.96087 -19.32896,-5.96087 -25.28983,0 -3.91509,3.9151 -3.91509,12.69523 0,16.61033 z"
       id="text2"
       aria-label="福"
       sodipodi:nodetypes="ssssscsssssssssssssssssssscsssccssssssssssssssssssssssssss" />
  </g>
</svg>
