<?xml version="1.0" encoding="UTF-8" standalone="no"?>
<!-- Created with Inkscape (http://www.inkscape.org/) -->

<svg
   width="47.517574"
   height="47.517574"
   viewBox="0 0 47.517574 47.517574"
   version="1.1"
   id="svg1"
   xmlns="http://www.w3.org/2000/svg"
   xmlns:svg="http://www.w3.org/2000/svg">
  <defs
     id="defs1" />
  <g
     id="layer1"
     transform="translate(-0.24121214,-0.24121214)">
    <rect
       style="fill:#ff0000;stroke-width:0.999999"
       id="rect1"
       width="33.599998"
       height="33.599998"
       x="-16.799999"
       y="-50.741123"
       transform="rotate(135)" />
    <path
       style="font-size:24.1779px;fill:#ffcc00"
       d="m -16.769352,-28.701816 c -0.846214,0.626109 -9.709426,0.453269 -10.468889,0.07612 -0.803664,-0.399098 -1.508209,-1.59844 -0.673566,-2.024544 0.602616,-0.30765 9.637875,-0.937859 11.232264,0.190304 1.469376,1.039705 0.749601,1.137043 -0.08981,1.758119 z m 0.804809,7.377539 c 1.087158,1.169772 1.208096,5.912726 -0.31433,7.243851 -1.334792,1.167069 -10.583041,1.422785 -12.195946,0.114183 -1.930131,-1.56598 -0.2561,-6.064385 -1.343084,-5.779013 -1.089077,0.28592 -0.350708,4.644775 -1.316538,5.768722 -0.759182,0.883463 -2.419867,1.126221 -3.194899,0.418668 -0.725101,-0.661969 0.715395,-5.710471 -0.179617,-5.837168 -0.557452,-0.07891 -0.331484,0.317688 -1.119105,0.493384 -1.011683,0.225678 -1.971789,-0.536859 -1.246878,-1.836583 0.652032,-1.169059 3.163073,-3.506641 2.697481,-4.041297 -0.553266,-0.635335 -1.866945,-0.109389 -2.542059,-0.456729 -0.944024,-0.485693 -0.901584,-2.728991 0.179617,-3.394733 0.891747,-0.549087 1.179792,0.716747 1.702808,0.190304 0.594608,-0.598506 -0.445062,-0.982908 0.02423,-1.893052 0.502702,-0.974939 1.994635,-0.762394 2.939297,-0.352374 0.788486,0.342234 0.344361,1.647099 1.088005,2.055122 0.34504,0.189317 1.258253,-0.2791 1.951543,0.152243 0.849829,0.528737 0.820674,1.415817 0.297002,2.386436 -0.452291,0.838314 -1.694172,1.706935 -1.627194,2.713395 0.04107,0.617205 1.813013,2.53752 2.584287,1.971993 0.80686,-0.591619 10.776904,-0.819541 11.61538,0.08265 z m -11.025034,-2.026579 c -1.161345,-0.48923 -1.08329,-2.955362 0,-3.704988 1.133181,-0.78415 8.714409,-0.989062 10.037192,-0.03806 1.305222,0.938376 0.71113,3.030896 -0.08981,3.895292 -1.02797,1.109417 -8.747217,0.353341 -9.947383,-0.152243 z m 2.072325,-1.291255 c 0.842477,0.349124 4.844672,0.967217 5.806184,0.49479 0.304369,-0.149549 0.06469,-0.953435 -0.134713,-1.541616 -0.214316,-0.63218 -4.799768,-0.510488 -5.536758,-0.03806 -0.2806,0.179871 -0.837816,0.793517 -0.134713,1.084886 z m -0.549171,4.545914 c -0.363067,0.307734 -0.363067,0.997872 0,1.305606 0.529987,0.449215 1.718558,0.449215 2.248545,0 0.363067,-0.307734 0.363067,-0.997872 0,-1.305606 -0.529987,-0.449215 -1.718558,-0.449215 -2.248545,0 z m 6.818168,0 c -0.552782,-0.468536 -1.792474,-0.468536 -2.345256,0 -0.363067,0.307734 -0.363067,0.997872 0,1.305606 0.552782,0.468536 1.792474,0.468536 2.345256,0 0.363067,-0.307734 0.363067,-0.997872 0,-1.305606 z m -6.818168,3.820108 c 0.529987,0.449215 1.718558,0.449215 2.248545,0 0.363067,-0.307735 0.363067,-0.997872 0,-1.305607 -0.529987,-0.449215 -1.718558,-0.449215 -2.248545,0 -0.363067,0.307735 -0.363067,0.997872 0,1.305607 z m 6.818168,-1.305607 c -0.552782,-0.468536 -1.792474,-0.468536 -2.345256,0 -0.363067,0.307735 -0.363067,0.997872 0,1.305607 0.552782,0.468536 1.792474,0.468536 2.345256,0 0.363067,-0.307735 0.363067,-0.997872 0,-1.305607 z"
       id="text2"
       aria-label="ç¦"
       transform="scale(-0.92065018,-1.0861889)" />
  </g>
</svg>
